<svg version="1.1" id="spaceArt" xmlns="http://www.w3.org/2000/svg" xmlns:xlink="http://www.w3.org/1999/xlink" preserveAspectRatio="xMinYMin" viewBox="0 0 1605 1000" xml:space="preserve">
<g id="allButStars" transform="scale(1)translate(0,0)">
<!-- <g id="allButStars" transform="scale(25)translate(-480,-440)"> -->
<g id="stars"></g>
<g id="Planets" transform="translate(83.883, 398.433)">
	<g id="Blue_x5F_Planet">
		<g id="Planet_2_">
			<circle fill="#2C74B5" cx="714.237" cy="113.42" r="56"/>
			<path fill="#2C74B5" d="M714.193,58.354c17.028-0.001,33.817,7.872,44.592,22.702c17.874,24.602,12.421,59.036-12.183,76.911
				c-9.771,7.1-21.1,10.521-32.32,10.521c-17.027,0-33.815-7.871-44.591-22.7c-17.876-24.604-12.421-59.038,12.181-76.912
				C691.646,61.773,702.972,58.354,714.193,58.354 M714.195,55.854v2.5V55.854h-0.003c-12.203,0-23.888,3.804-33.79,10.998
				c-12.438,9.038-20.612,22.378-23.019,37.564c-2.406,15.186,1.247,30.4,10.285,42.84c10.796,14.859,28.222,23.73,46.612,23.73
				c12.203,0,23.888-3.804,33.79-10.997c12.438-9.037,20.614-22.378,23.021-37.564c2.405-15.186-1.247-30.399-10.284-42.839
				C750.011,64.726,732.586,55.854,714.195,55.854L714.195,55.854z"/>
		</g>
		<path id="Shadow_2_" opacity="0.23" enable-background="new    " d="M681.825,136.97c-16.379-22.544-13.157-53.333,6.422-72.082
			c-2.182,1.172-4.314,2.49-6.375,3.986c-24.602,17.875-30.057,52.31-12.182,76.912c17.875,24.602,52.311,30.055,76.912,12.181
			c2.059-1.496,3.972-3.118,5.76-4.83C728.481,165.964,698.204,159.513,681.825,136.97z"/>
		<path id="Crater_5_" opacity="0.3" enable-background="new    " d="M738.303,81.452c2.733-1.987,6.562-1.381,8.551,1.354
			c1.987,2.734,1.381,6.562-1.354,8.552c-1.472,1.067-3.258,1.387-4.903,1.026c2.005,0.635,4.273,0.342,6.104-0.988
			c3.065-2.227,3.745-6.518,1.52-9.582c-2.229-3.065-6.52-3.745-9.584-1.519c-1.831,1.331-2.811,3.399-2.826,5.501
			C735.979,84.12,736.831,82.52,738.303,81.452z"/>
		<path id="Crater_4_" opacity="0.3" enable-background="new    " d="M721.099,131.136c3.063-2.228,7.354-1.547,9.58,1.518
			c2.226,3.063,1.547,7.352-1.519,9.579c-1.646,1.196-3.647,1.554-5.491,1.15c2.245,0.711,4.787,0.383,6.84-1.106
			c3.434-2.494,4.194-7.303,1.701-10.734c-2.496-3.437-7.304-4.197-10.736-1.7c-2.052,1.49-3.148,3.809-3.167,6.161
			C718.495,134.125,719.452,132.331,721.099,131.136z"/>
		<path id="Crater_3_" opacity="0.3" enable-background="new    " d="M740.383,106.51c3.234-2.352,7.764-1.634,10.114,1.603
			c2.351,3.233,1.634,7.762-1.603,10.113c-1.739,1.265-3.852,1.641-5.8,1.216c2.372,0.751,5.057,0.403,7.223-1.17
			c3.625-2.634,4.43-7.709,1.795-11.334c-2.635-3.627-7.709-4.431-11.335-1.796c-2.166,1.574-3.323,4.021-3.344,6.507
			C737.633,109.665,738.645,107.771,740.383,106.51z"/>
		<path id="Crater_2_" opacity="0.3" enable-background="new    " d="M686.983,98.392c2.896-2.104,6.946-1.462,9.05,1.434
			c2.104,2.894,1.461,6.943-1.434,9.049c-1.556,1.131-3.446,1.467-5.189,1.087c2.123,0.672,4.524,0.362,6.463-1.046
			c3.243-2.356,3.962-6.897,1.605-10.141c-2.357-3.246-6.897-3.965-10.142-1.607c-1.938,1.408-2.975,3.597-2.991,5.822
			C684.522,101.215,685.428,99.521,686.983,98.392z"/>
		<path id="Crater_1_" opacity="0.3" enable-background="new    " d="M722.861,104.154c1.96-1.425,4.705-0.99,6.129,0.971
			c1.425,1.961,0.99,4.705-0.971,6.13c-1.054,0.767-2.334,0.994-3.514,0.737c1.437,0.454,3.062,0.244,4.376-0.709
			c2.196-1.597,2.685-4.672,1.089-6.869c-1.599-2.197-4.673-2.687-6.87-1.088c-1.312,0.953-2.015,2.437-2.026,3.942
			C721.195,106.066,721.807,104.92,722.861,104.154z"/>
		<path id="Crater" opacity="0.3" enable-background="new    " d="M710.812,71.753c1.809-1.313,4.341-0.913,5.655,0.896
			c1.313,1.81,0.912,4.341-0.896,5.655c-0.973,0.706-2.151,0.917-3.242,0.679c1.326,0.421,2.827,0.228,4.038-0.652
			c2.027-1.473,2.478-4.311,1.004-6.337c-1.474-2.027-4.311-2.478-6.337-1.004c-1.211,0.881-1.858,2.248-1.869,3.639
			C709.274,73.518,709.84,72.459,710.812,71.753z"/>
	</g> <!-- contact -->
	<g id="Grey_x5F_Planet">
		<g id="Planet_3_">
			<circle fill="#7E7E7F" cx="574.675" cy="113.42" r="25"/>
			<path fill="#7E7E7F" d="M574.655,89.367c7.438,0,14.771,3.438,19.478,9.916c7.808,10.746,5.426,25.786-5.32,33.594
				c-4.269,3.102-9.215,4.596-14.116,4.596c-7.438,0-14.771-3.438-19.478-9.916c-7.81-10.746-5.427-25.787,5.319-33.594
				C564.807,90.861,569.754,89.368,574.655,89.367 M574.656,87.867h-0.002c-5.416,0-10.603,1.688-14.998,4.882
				c-5.521,4.012-9.149,9.933-10.218,16.674c-1.067,6.741,0.554,13.494,4.565,19.016c4.793,6.597,12.526,10.534,20.69,10.534
				c5.416,0,10.604-1.688,14.998-4.882c5.521-4.012,9.15-9.934,10.218-16.675c1.067-6.74-0.554-13.493-4.564-19.016
				C590.553,91.805,582.818,87.867,574.656,87.867L574.656,87.867z"/>
		</g>
		<path id="Shadow_3_" display="none" opacity="0.23" enable-background="new    " d="M561.68,122.861
			c-7.007-9.646-5.802-22.746,2.287-30.976c-1.179,0.588-2.327,1.275-3.43,2.076c-10.745,7.808-13.129,22.848-5.319,33.594
			c7.807,10.745,22.848,13.129,33.594,5.32c1.102-0.8,2.11-1.68,3.034-2.619C581.52,135.407,568.687,132.506,561.68,122.861z"/>
		<g id="Alt_Shadow">
			<g id="Lower_Shadow" opacity="0.3">
				<path d="M561.68,122.861c-1.979-2.726-3.28-5.729-3.979-8.816h-7.065c0.118,4.702,1.608,9.419,4.584,13.512
					c7.807,10.745,22.848,13.129,33.594,5.32c0.513-0.372,1.002-0.766,1.476-1.171c0.06-0.05,0.118-0.101,0.177-0.149
					c0.476-0.415,0.934-0.844,1.371-1.288c0.003-0.003,0.007-0.007,0.01-0.01C581.518,135.407,568.687,132.505,561.68,122.861z"/>
			</g>
			<g id="Upper_Shadow" opacity="0.3">
				<path d="M563.967,91.887c-0.001,0-0.002,0-0.003,0.001c-0.563,0.282-1.121,0.589-1.67,0.918
					c-0.058,0.035-0.114,0.071-0.172,0.105c-0.536,0.328-1.066,0.674-1.585,1.051c-6.29,4.57-9.709,11.618-9.901,18.833h6.804
					C556.163,105.318,558.471,97.479,563.967,91.887z"/>
			</g>
			<g id="Mid_section" opacity="0.3">
				<path id="Right_mid" d="M557.7,114.045h41.014c0.012-0.416,0.013-0.833,0.002-1.25H557.44
					C557.511,113.214,557.606,113.629,557.7,114.045z"/>
			</g>
			<circle id="Operational" opacity="0.3" enable-background="new    " cx="585.67" cy="103.09" r="7.567"/>
		</g>
	</g> <!-- blog -->
	<g id="Purple_x5F_Planet">
		<path id="Ring_Back" fill="none" stroke="#BFBFBF" stroke-width="3" d="M400.401,178.523c-13.64-6.754-10.265-41.377,7.538-77.334
			c17.802-35.956,43.292-59.63,56.932-52.875"/>
		<g id="Planet">
			<circle fill="#8576A3" cx="432.636" cy="113.42" r="53"/>
			<path fill="#8576A3" d="M432.592,60.883c16.245,0,32.263,7.51,42.542,21.658c17.054,23.472,11.851,56.324-11.62,73.377
				c-9.323,6.773-20.129,10.036-30.834,10.036c-16.246,0-32.265-7.51-42.543-21.658c-17.054-23.472-11.851-56.324,11.621-73.377
				C411.081,64.146,421.886,60.883,432.592,60.883 M432.594,58.383v2.5V58.383h-0.003c-11.666,0-22.836,3.636-32.303,10.514
				c-11.893,8.641-19.709,21.395-22.008,35.913c-2.3,14.52,1.192,29.064,9.833,40.957c10.322,14.207,26.982,22.688,44.565,22.688
				c11.666,0,22.836-3.636,32.304-10.514c24.549-17.836,30.01-52.319,12.173-76.869C466.835,66.865,450.176,58.383,432.594,58.383
				L432.594,58.383z"/>
		</g>
		<path id="Shadow" opacity="0.23" enable-background="new    " d="M404.319,133.991c-15.297-21.055-12.675-49.648,4.966-67.624
			c-2.589,1.289-5.109,2.795-7.527,4.552c-23.472,17.053-28.675,49.905-11.621,73.377c17.053,23.472,49.905,28.675,73.377,11.622
			c2.417-1.756,4.629-3.688,6.655-5.753C447.621,161.388,419.616,155.046,404.319,133.991z"/>
		<path id="Ring_Front" fill="none" stroke="#BFBFBF" stroke-width="3" d="M464.871,48.312c13.642,6.754,10.267,41.376-7.538,77.332
			c-17.802,35.958-43.291,59.633-56.932,52.878"/>
	</g> <!-- indipendant projects -->
	<g id="Orange_x5F_Planet">
		<g id="Planet_1_">
			<circle fill="#DBA73E" cx="239.572" cy="113.42" r="87"/>
			<path fill="#DBA73E" d="M239.502,26.704c26.814-0.001,53.253,12.396,70.22,35.749c28.147,38.743,19.559,92.967-19.185,121.116
				c-15.389,11.181-33.225,16.565-50.895,16.565c-26.814,0-53.253-12.396-70.22-35.749c-28.148-38.743-19.559-92.968,19.182-121.115
				C203.996,32.089,221.832,26.705,239.502,26.704 M239.507,23.704h-0.005c-19.02,0.001-37.229,5.928-52.659,17.139
				c-40.018,29.075-48.921,85.288-19.846,125.306c8.464,11.648,19.705,21.178,32.507,27.555c12.388,6.17,26.268,9.432,40.14,9.432
				c19.017,0,37.226-5.927,52.658-17.14c19.386-14.085,32.127-34.876,35.876-58.542c3.749-23.667-1.944-47.378-16.028-66.765
				c-8.463-11.648-19.703-21.177-32.505-27.554C267.258,26.965,253.378,23.704,239.507,23.704L239.507,23.704z"/>
		</g>
		<path id="Shadow_1_" opacity="0.23" enable-background="new    " d="M188.37,150.621c-25.814-35.529-20.727-84.077,10.174-113.594
			c-3.403,1.833-6.724,3.908-9.938,6.242c-38.741,28.147-47.331,82.372-19.182,121.115c28.148,38.742,82.374,47.33,121.115,19.184
			c3.214-2.334,6.215-4.853,9.009-7.521C261.926,196.314,214.183,186.15,188.37,150.621z"/>
	</g> <!-- client work -->
	<g id="Brown_x5F_Planet">
		<g id="Planet_4_">
			<circle fill="#825F3D" cx="48.052" cy="113.42" r="46"/>
			<path fill="#825F3D" d="M48.015,67.847c14.093,0,27.987,6.516,36.904,18.788c14.793,20.361,10.279,48.859-10.082,63.652
				c-8.088,5.876-17.461,8.706-26.748,8.706c-14.093,0-27.987-6.516-36.904-18.787C-3.608,119.845,0.906,91.347,21.267,76.553
				C29.354,70.677,38.728,67.847,48.015,67.847 M48.018,65.347v2.5V65.347h-0.002c-10.191,0-19.949,3.176-28.217,9.185
				c-21.444,15.58-26.215,45.7-10.635,67.145c9.016,12.409,23.568,19.817,38.927,19.817c10.19,0,19.948-3.177,28.217-9.185
				c10.388-7.547,17.215-18.688,19.224-31.369c2.009-12.683-1.041-25.388-8.588-35.774C77.926,72.755,63.374,65.347,48.018,65.347
				L48.018,65.347z"/>
		</g>
		<g id="Rivers" opacity="0.5">
			<path fill="#3FA9F5" d="M88.848,117.704c-4.045-3.895-4.158-7.693-4.789-12.81c-0.475-3.854-2.428-6.847-4.521-10.021
				c-3.488-5.289-2.13-9.447,1.383-13.008c-0.942-0.984-1.921-1.916-2.933-2.799c-2.003,1.933-3.623,4.146-4.5,7.009
				c-1.636,5.34,2.342,10.245,4.936,14.44c3.044,4.926,1.133,10.943,4.255,15.937c2.345,3.75,5.829,6.392,9.314,9.011
				c0.386-1.413,0.705-2.843,0.954-4.285C91.53,120.082,90.143,118.951,88.848,117.704z"/>
			<path fill="#3FA9F5" d="M45.081,138.678c-1.631-3.795-3.393-7.443-5.601-11.088c-2.708-4.467-7.102-9.696-7.484-15.063
				c-0.344-4.812,7.706-7.031,11.026-8.503c6.017-2.667,13.123-6.732,12.297-14.315c-0.674-6.192-13.308-16.36-7.622-21.846
				c-1.681,0.012-3.363,0.112-5.041,0.312c-1.689,4.58,1.438,10.089,4.833,14.537c3.772,4.941,5.818,10.05,0.128,14.273
				c-4.494,3.336-10.146,4.605-14.838,7.595c-4.89,3.114-5.246,7.391-3.893,11.729c-5.58,2.743-9.114,6.843-10.41,13.045
				c-1.169,5.594-0.907,11.039-2.766,16.182c1.024,1.034,2.091,2.008,3.193,2.926c1.714-3.757,2.377-7.79,2.76-12.05
				c0.669-7.438,1.981-12.822,8.731-16.398c1.181,2.408,2.647,4.736,3.901,6.787c6.426,10.518,10.222,21.968,17.119,32.064
				c1.484-0.108,2.966-0.288,4.441-0.544c-3.601-4.673-6.712-9.65-8.919-15.154c-0.112-0.279-0.225-0.554-0.337-0.831
				c6.484-2.415,13.44,0.104,19.732,2.227c3.495,1.18,7.672,1.977,11.355,3.461c1.114-0.952,2.172-1.948,3.173-2.985
				c-4.679-2.242-10.222-3.237-14.936-4.828C59.022,137.877,51.978,136.148,45.081,138.678z"/>
		</g>
		<path id="Shadow_4_" opacity="0.23" enable-background="new    " d="M21.324,132.84C7.779,114.2,10.428,88.747,26.595,73.226
			c-1.823,0.977-3.606,2.077-5.327,3.328C0.907,91.347-3.607,119.846,11.186,140.207c14.793,20.359,43.291,24.874,63.652,10.081
			c1.721-1.25,3.32-2.605,4.811-4.038C59.892,156.827,34.866,151.48,21.324,132.84z"/>
	</g> <!-- about -->
	<g id="Moon_1_" transform="translate(0,0)rotate(0)">
		<g id="Main_1_">
			<circle fill="#CABEB3" cx="152.857" cy="25.815" r="16"/>
			<path fill="#CABEB3" d="M152.857,10.676c8.361,0,15.14,6.777,15.14,15.139c0,8.362-6.778,15.141-15.14,15.141
				c-0.721,0-1.425-0.068-2.12-0.166c-7.354-1.033-13.02-7.334-13.02-14.974c0-7.642,5.666-13.94,13.02-14.975
				C151.433,10.743,152.137,10.676,152.857,10.676 M152.857,8.676c-0.741,0-1.503,0.059-2.398,0.185
				c-8.404,1.181-14.742,8.469-14.742,16.954c0,8.485,6.337,15.773,14.742,16.954c0.899,0.126,1.662,0.187,2.398,0.187
				c9.451,0,17.14-7.689,17.14-17.141C169.998,16.364,162.309,8.676,152.857,8.676L152.857,8.676z"/>
		</g>
		<path id="Crater_6_" opacity="0.3" enable-background="new    " d="M155.792,19.057c1.902-1.382,4.566-0.96,5.948,0.942
			c1.382,1.903,0.96,4.565-0.942,5.948c-0.586,0.426-1.246,0.659-1.917,0.754c1.012,0.028,2.04-0.244,2.922-0.886
			c2.119-1.54,2.589-4.506,1.05-6.625c-1.54-2.118-4.506-2.589-6.625-1.05c-0.883,0.643-1.461,1.535-1.745,2.508
			C154.778,20.04,155.207,19.484,155.792,19.057z"/>
		<path id="Shadow_6_" opacity="0.3" enable-background="new    " d="M144.041,32.22c-4.491-6.181-3.611-14.606,1.731-19.767
			c-0.618,0.329-1.229,0.688-1.812,1.111c-6.764,4.914-8.265,14.383-3.35,21.146c4.914,6.765,14.383,8.264,21.146,3.35
			c0.584-0.424,1.113-0.893,1.617-1.38C156.817,40.169,148.53,38.401,144.041,32.22z"/>
	</g>
</g>
<g id="Rocket" transform="translate(325.757,386.58)">
	<g id="Exaust">
		<g id="Outer">
			<path fill="#D38009" d="M14.204,46.329c-3.021,2.69-7.438,6.086-8.24,10.285c2.102,0.69,5.531-1.478,7.049-0.782
				c1.518,0.693,2,5.121,3.11,6.457c1.569-1.229,1.969-3.62,2.896-5.254c2.159,1.099,4.031,3.074,6.134,4.349
				c2.206-2.572-0.612-8.738-1.148-11.825"/>
		</g>
		<g id="Inner">
			<path fill="#E5CA07" d="M17.112,47.287c-1.338,0.529-7.223,6.545-7.223,6.545s4.935-2.081,5.868-1.386
				c0.761,0.639,0.855,3.796,0.976,4.61c2.498-2.28,3.971-1.894,6.602,0.721c1.302-2.772-1.371-6.37-1.146-8.817"/>
		</g>
	</g>
	<path id="Left_Leg" fill="#D42A2A" d="M5.486,44.966c4.462-6.455,9.697-10.938,13.854-12.323c-0.211-3.923-1.39-6.705-3.482-7.395
		c-4.127-1.359-10.234,5.923-13.643,16.265c-1.673,5.078-2.382,9.946-2.184,13.751C1.265,51.958,3.107,48.409,5.486,44.966z"/>
	<path id="Right_Leg" fill="#D42A2A" d="M32.153,53.752c0.25-7.843-1.295-14.561-3.816-18.146c2.502-3.028,5.104-4.564,7.197-3.876
		c4.126,1.359,4.709,10.848,1.302,21.188c-1.673,5.078-3.997,9.414-6.417,12.354C31.394,61.885,32.021,57.936,32.153,53.752z"/>
	<g id="Body">
		<g id="Main">
			<path fill="#AFAFAF" d="M40.988,13.894c0.051,12.613-6.347,28.136-14.29,34.67c-7.942,6.535-14.422,1.607-14.473-11.005
				c-0.052-12.612,6.347-28.135,14.289-34.67C34.458-3.646,40.938,1.281,40.988,13.894z"/>
		</g>
		<path id="Shadow_5_" opacity="0.23" enable-background="new    " d="M16.11,34.362C16.063,22.796,21.44,8.784,28.458,1.499
			c-0.635,0.387-1.284,0.848-1.943,1.39c-7.941,6.535-14.34,22.058-14.288,34.67c0.051,12.612,6.529,17.54,14.473,11.005
			c0.659-0.542,1.307-1.146,1.94-1.806C21.61,51.031,16.156,45.93,16.11,34.362z"/>
	</g>
</g>
<g id="Sun" transform="translate(907,0)" style="display: none;">
	<defs>
		<rect id="Mask" width="93" height="1000"/>
	</defs>
	<clipPath id="Mask_1_">
		<use xlink:href="#Mask"  overflow="visible"/>
	</clipPath>
	<circle id="Outer_1_" clip-path="url(#Mask_1_)" fill="#CCA529" cx="2057.882" cy="500" r="2049.051"/>
	<circle id="Middle" clip-path="url(#Mask_1_)" fill="#D6BD54" cx="2057.882" cy="500" r="2017.882"/>
	<circle id="Inner_1_" clip-path="url(#Mask_1_)" fill="#E2DA7E" cx="2057.882" cy="500" r="1985.882"/>
</g>
<g id="SunAlt" transform="translate(987,0)">
	<circle id="Outer_2_" fill="#CCA529" cx="2057.882" cy="500" r="2049.051"/>
	<circle id="Middle_2_" fill="#D6BD54" cx="2057.882" cy="500" r="2017.882"/>
	<circle id="Inner_2_" fill="#E2DA7E" cx="2057.882" cy="500" r="1985.882"/>
</g>
</g>
</svg>